<svg xmlns="http://www.w3.org/2000/svg" fill="none" viewBox="-0.5 -0.5 24 24" height="24" width="24"><path stroke="#fff" stroke-linecap="round" stroke-linejoin="round" d="M4.4505 11.4425a0.244375 0.244375 0 0 0 -0.15525 0.22520833333333332c0 0.09775 0.06420833333333334 0.18975000000000003 0.15525 0.22425000000000003l2.862541666666667 1.0445833333333334 5.897583333333333 -3.0446250000000004a0.14758333333333334 0.14758333333333334 0 0 1 0.18208333333333335 0.04791666666666667 0.14758333333333334 0.14758333333333334 0 0 1 -0.021083333333333332 0.186875L9.138666666666667 13.857500000000002l4.711166666666667 3.40975c0.06420833333333334 0.046000000000000006 0.15045833333333333 0.0575 0.22425000000000003 0.03066666666666667a0.24341666666666667 0.24341666666666667 0 0 0 0.1495 -0.169625L16.57916666666667 7.2219999999999995a0.24341666666666667 0.24341666666666667 0 0 0 -0.07475 -0.23575000000000002 0.24341666666666667 0.24341666666666667 0 0 0 -0.24341666666666667 -0.044083333333333335L4.4505 11.4425Z" stroke-width="1"></path><path stroke="" stroke-linejoin="round" d="M1.4375 11.5a10.0625 10.0625 0 1 0 20.125 0 10.0625 10.0625 0 1 0 -20.125 0" stroke-width="1"></path></svg>