<svg xmlns="http://www.w3.org/2000/svg" fill="none" viewBox="-0.5 -0.5 24 24" height="24" width="24"><path stroke="#fff" stroke-linecap="round" stroke-linejoin="round" d="M1.4375 18.208333333333336c15.333333333333334 4.216666666666667 18.330041666666666 -5.055208333333334 18.208333333333336 -10.0625 1.1595833333333334 -0.31625000000000003 1.756625 -1.2774583333333334 1.9166666666666667 -1.9166666666666667 -0.7666666666666667 0.38333333333333336 -1.5975416666666669 0.1600416666666667 -1.9166666666666667 0 1.15 -0.38333333333333336 1.0771666666666668 -1.5304583333333335 0.9583333333333334 -2.3958333333333335 -0.4820416666666667 0.253 -1.3752083333333334 0.8778333333333334 -2.3958333333333335 0.9583333333333334 -0.6823333333333333 -1.066625 -2.3958333333333335 -1.9166666666666667 -4.791666666666667 -0.9583333333333334s-2.875 3.5142083333333334 -2.3958333333333335 4.791666666666667C7.9541666666666675 8.625 4.3125 5.430875 2.875 3.8333333333333335c-1.7230833333333335 2.458125 0.457125 4.897083333333334 1.4375 5.75 -0.6535833333333334 0.1955 -1.4375 0 -1.9166666666666667 -0.4791666666666667 0 2.736041666666667 2.3958333333333335 3.8333333333333335 3.354166666666667 4.3125H3.8333333333333335c0 1.9166666666666667 2.235791666666667 2.7149583333333336 3.354166666666667 2.875 -0.7666666666666667 0.7666666666666667 -4.152458333333334 1.5975416666666669 -5.75 1.9166666666666667Z" stroke-width="1"></path></svg>