<svg xmlns="http://www.w3.org/2000/svg" fill="none" viewBox="-0.5 -0.5 24 24" height="24" width="24"><path stroke="#fff" stroke-linejoin="round" d="M1.4375 11.5c0 -1.4154583333333335 0.06804166666666667 -2.7504166666666667 0.15716666666666668 -3.8697500000000002 0.13416666666666668 -1.6905000000000001 1.4739166666666668 -2.99 3.165375 -3.107875C6.385375000000001 4.408333333333333 8.605833333333335 4.3125 11.5 4.3125c2.894166666666667 0 5.114625 0.09583333333333334 6.739958333333334 0.209875 1.6914583333333333 0.11787500000000001 3.0312083333333333 1.4183333333333334 3.165375 3.107875 0.089125 1.1202916666666667 0.15716666666666668 2.4533333333333336 0.15716666666666668 3.8697500000000002 0 1.46625 -0.07283333333333333 2.8452916666666668 -0.16674999999999998 3.989541666666667a3.233416666666667 3.233416666666667 0 0 1 -3.0340833333333332 2.9909583333333334c-1.6416250000000001 0.11212500000000002 -3.9387500000000006 0.20700000000000002 -6.861666666666667 0.20700000000000002s-5.220041666666667 -0.09487500000000001 -6.861666666666667 -0.20700000000000002a3.233416666666667 3.233416666666667 0 0 1 -3.0340833333333332 -2.9909583333333334A49.49025 49.49025 0 0 1 1.4375 11.5Z" stroke-width="1"></path><path stroke="#fff" stroke-linejoin="round" d="M9.583333333333334 14.375V8.625l5.270833333333334 2.875 -5.270833333333334 2.875Z" stroke-width="1"></path></svg>