<svg width="210" height="125" viewBox="0 0 210 125" fill="none" xmlns="http://www.w3.org/2000/svg">
<g opacity="0.8">
<path fill-rule="evenodd" clip-rule="evenodd" d="M189 62.845C189 97.0867 161.242 124.845 127 124.845C92.7584 124.845 65 97.0867 65 62.845C65 28.6033 92.7584 0.844971 127 0.844971C161.242 0.844971 189 28.6033 189 62.845Z" stroke="#8F8F8F" stroke-width="0.1"/>
<path fill-rule="evenodd" clip-rule="evenodd" d="M163 63.3451C163 82.9514 147.106 98.845 127.5 98.845C107.894 98.845 92 82.9514 92 63.3451C92 43.7388 107.894 27.845 127.5 27.845C147.106 27.845 163 43.7388 163 63.3451" fill="#EAEAEA"/>
<path fill-rule="evenodd" clip-rule="evenodd" d="M172 63.3451C172 87.9218 152.077 107.845 127.5 107.845C102.923 107.845 83 87.9218 83 63.3451C83 38.7684 102.923 18.845 127.5 18.845C152.077 18.845 172 38.7684 172 63.3451Z" stroke="#8F8F8F" stroke-width="0.3"/>
<path fill-rule="evenodd" clip-rule="evenodd" d="M180 62.8451C180 92.1161 156.271 115.845 127 115.845C97.7293 115.845 74 92.1161 74 62.8451C74 33.5738 97.7293 9.84497 127 9.84497C156.271 9.84497 180 33.5738 180 62.8451Z" stroke="#8F8F8F" stroke-width="0.2"/>
</g>
<path fill-rule="evenodd" clip-rule="evenodd" d="M33.2913 46.845V63.4906C33.2913 72.6695 25.8246 80.1362 16.6456 80.1362C7.4667 80.1362 0 72.6695 0 63.4906V46.845H5.9448V63.4906C5.9448 69.3879 10.7483 74.1914 16.6456 74.1914C22.5429 74.1914 27.3465 69.3879 27.3465 63.4906V46.845H33.2913Z" fill="#0F2A54"/>
<path fill-rule="evenodd" clip-rule="evenodd" d="M71.4817 74.1441V80.0889L38.1904 80.1364L38.2379 80.0889L59.3064 52.7899H38.1426V46.8451H63.8722H71.3389L66.7256 52.7899L58.4505 63.5382L54.6936 68.3893L50.2228 74.1441H71.4817Z" fill="#0F2A54"/>
<path fill-rule="evenodd" clip-rule="evenodd" d="M108.362 80.1364H101.703L98.6595 74.1916L91.3831 59.9238L84.1064 74.1916L81.0626 80.1364H74.4043L77.4481 74.1916L91.3831 46.8451L105.318 74.1916L108.362 80.1364Z" fill="#0F2A54"/>
<path fill-rule="evenodd" clip-rule="evenodd" d="M94.7592 76.793C94.7592 74.9275 93.2468 73.4154 91.3815 73.4154C89.5163 73.4154 88.0039 74.9275 88.0039 76.793C88.0039 78.6583 89.5163 80.1707 91.3815 80.1707C93.2468 80.1707 94.7592 78.6583 94.7592 76.793" fill="#FF0000"/>
<path fill-rule="evenodd" clip-rule="evenodd" d="M118.023 80.1271H118.929V46.9064H118.023V80.1271Z" fill="#0F2A54"/>
<path fill-rule="evenodd" clip-rule="evenodd" d="M136.389 51.9384C136.389 49.7077 134.7 48.0566 132.457 48.0566C130.201 48.0566 128.512 49.7077 128.512 51.9384C128.512 54.169 130.201 55.8198 132.457 55.8198C134.7 55.8198 136.389 54.169 136.389 51.9384M127.869 51.9384C127.869 49.3797 129.823 47.4642 132.457 47.4642C135.078 47.4642 137.044 49.3675 137.044 51.9384C137.044 54.5092 135.078 56.4125 132.457 56.4125C129.823 56.4125 127.869 54.4967 127.869 51.9384" fill="#0F2A54"/>
<path fill-rule="evenodd" clip-rule="evenodd" d="M139.3 49.2916C139.3 49.5943 139.073 49.8209 138.783 49.8209C138.468 49.8209 138.254 49.5814 138.254 49.2916C138.254 49.1152 138.279 48.989 138.367 48.7122L138.859 46.9979H139.3L138.897 48.775C139.136 48.8381 139.3 49.0396 139.3 49.2916" fill="#0F2A54"/>
<path fill-rule="evenodd" clip-rule="evenodd" d="M145.828 55.8072V56.349H140.598V55.9206L144.933 50.3126H140.661V49.7705H145.752V50.199L141.404 55.8072H145.828Z" fill="#0F2A54"/>
<path fill-rule="evenodd" clip-rule="evenodd" d="M153.642 53.0598C153.642 51.4089 152.495 50.2874 150.983 50.2874C149.471 50.2874 148.336 51.4089 148.336 53.0598C148.336 54.7109 149.471 55.8322 150.983 55.8322C152.495 55.8322 153.642 54.7109 153.642 53.0598M154.272 53.0598C154.272 55.0258 152.873 56.3994 151.02 56.3994C149.836 56.3994 148.84 55.8074 148.323 54.7991V56.3492H147.719V46.9979H148.349V51.2705C148.878 50.2874 149.861 49.7201 151.02 49.7201C152.873 49.7201 154.272 51.0812 154.272 53.0598" fill="#0F2A54"/>
<path fill-rule="evenodd" clip-rule="evenodd" d="M156.138 52.7195H161.179C161.091 51.2953 160.057 50.2744 158.658 50.2744C157.259 50.2744 156.239 51.283 156.138 52.7195M161.784 53.211H156.125C156.188 54.7737 157.335 55.8321 158.91 55.8321C159.742 55.8321 160.511 55.5299 161.015 54.9124L161.38 55.328C160.801 56.034 159.893 56.3994 158.898 56.3994C156.907 56.3994 155.508 55.0132 155.508 53.0597C155.508 51.1063 156.856 49.7201 158.658 49.7201C160.461 49.7201 161.796 51.0812 161.796 53.0346C161.796 53.0852 161.784 53.1479 161.784 53.211" fill="#0F2A54"/>
<path fill-rule="evenodd" clip-rule="evenodd" d="M166.094 52.8331L164.38 54.3958V56.3492H163.75V46.9979H164.38V53.6145L168.589 49.7707H169.396L166.561 52.4298L169.673 56.3492H168.892L166.094 52.8331Z" fill="#0F2A54"/>
<path fill-rule="evenodd" clip-rule="evenodd" d="M171.051 56.3493H171.691V49.7707H171.051V56.3493ZM170.846 47.666C170.846 47.3888 171.076 47.1493 171.371 47.1493C171.665 47.1493 171.896 47.3759 171.896 47.6534C171.896 47.9432 171.665 48.1701 171.371 48.1701C171.076 48.1701 170.846 47.9432 170.846 47.666V47.666Z" fill="#0F2A54"/>
<path fill-rule="evenodd" clip-rule="evenodd" d="M173.367 55.5553L173.657 55.0512C174.161 55.4793 175.056 55.845 176.026 55.845C177.413 55.845 177.967 55.3535 177.967 54.6098C177.967 52.6944 173.607 54.106 173.607 51.5222C173.607 50.5268 174.438 49.7201 176.102 49.7201C176.934 49.7201 177.841 49.9722 178.358 50.363L178.068 50.8671C177.514 50.4637 176.795 50.2748 176.089 50.2748C174.804 50.2748 174.237 50.804 174.237 51.5097C174.237 53.4886 178.597 52.0895 178.597 54.5976C178.597 55.6686 177.677 56.3994 176.001 56.3994C174.917 56.3994 173.884 56.034 173.367 55.5553" fill="#0F2A54"/>
<path fill-rule="evenodd" clip-rule="evenodd" d="M183.625 55.9332C183.298 56.2484 182.768 56.3997 182.276 56.3997C181.117 56.3997 180.487 55.7191 180.487 54.6101V50.3127H179.277V49.7706H180.487V48.3339H181.117V49.7706H183.209V50.3127H181.117V54.547C181.117 55.3914 181.533 55.8576 182.339 55.8576C182.731 55.8576 183.096 55.7317 183.361 55.4922L183.625 55.9332Z" fill="#0F2A54"/>
<path fill-rule="evenodd" clip-rule="evenodd" d="M190.356 53.0597C190.356 51.4089 189.221 50.2873 187.709 50.2873C186.197 50.2873 185.063 51.4089 185.063 53.0597C185.063 54.7109 186.197 55.8321 187.709 55.8321C189.221 55.8321 190.356 54.7109 190.356 53.0597M184.42 53.0597C184.42 51.1063 185.819 49.7201 187.709 49.7201C189.6 49.7201 190.998 51.1063 190.998 53.0597C190.998 55.0132 189.6 56.3994 187.709 56.3994C185.819 56.3994 184.42 55.0132 184.42 53.0597" fill="#0F2A54"/>
<path fill-rule="evenodd" clip-rule="evenodd" d="M198.837 52.5053V56.3491H198.207V52.5555C198.207 51.0689 197.413 50.2872 196.077 50.2872C194.527 50.2872 193.582 51.283 193.582 52.8456V56.3491H192.951V49.7705H193.556V51.1947C193.997 50.2747 194.918 49.7203 196.165 49.7203C197.766 49.7203 198.837 50.6655 198.837 52.5053" fill="#0F2A54"/>
<path fill-rule="evenodd" clip-rule="evenodd" d="M137.056 68.2383L137.043 60.6895L133.351 67.0662H133.035L129.343 60.7143V68.2383H128.713V59.4166H129.255L133.199 66.2347L137.144 59.4166H137.673L137.686 68.2383H137.056Z" fill="#0F2A54"/>
<path fill-rule="evenodd" clip-rule="evenodd" d="M140.564 68.2382H141.204V61.6597H140.564V68.2382ZM140.359 59.5549C140.359 59.2778 140.59 59.0386 140.885 59.0386C141.179 59.0386 141.409 59.2652 141.409 59.5427C141.409 59.8324 141.179 60.0591 140.885 60.0591C140.59 60.0591 140.359 59.8324 140.359 59.5549V59.5549Z" fill="#0F2A54"/>
<path fill-rule="evenodd" clip-rule="evenodd" d="M143.85 68.2381H144.48V58.8872H143.85V68.2381Z" fill="#0F2A54"/>
<path fill-rule="evenodd" clip-rule="evenodd" d="M147.139 68.2381H147.769V58.8872H147.139V68.2381Z" fill="#0F2A54"/>
<path fill-rule="evenodd" clip-rule="evenodd" d="M150.431 68.2382H151.072V61.6597H150.431V68.2382ZM150.227 59.5549C150.227 59.2778 150.457 59.0386 150.752 59.0386C151.046 59.0386 151.277 59.2652 151.277 59.5427C151.277 59.8324 151.046 60.0591 150.752 60.0591C150.457 60.0591 150.227 59.8324 150.227 59.5549V59.5549Z" fill="#0F2A54"/>
<path fill-rule="evenodd" clip-rule="evenodd" d="M158.997 61.6598L155.62 69.1329C155.091 70.3427 154.435 70.7339 153.566 70.7339C152.973 70.7339 152.419 70.532 152.041 70.1412L152.356 69.6625C152.696 70.0153 153.087 70.1789 153.578 70.1789C154.183 70.1789 154.624 69.9017 155.027 69.0071L155.381 68.2132L152.419 61.6598H153.087L155.721 67.5452L158.355 61.6598H158.997Z" fill="#0F2A54"/>
<path fill-rule="evenodd" clip-rule="evenodd" d="M167.733 66.2978V65.0625H165.49C164.129 65.0625 163.65 65.6298 163.65 66.386C163.65 67.243 164.318 67.7719 165.477 67.7719C166.586 67.7719 167.355 67.243 167.733 66.2978M168.363 64.0668V68.2383H167.758V67.0662C167.342 67.8224 166.536 68.2889 165.389 68.2889C163.914 68.2889 163.02 67.5327 163.02 66.4108C163.02 65.4154 163.65 64.571 165.477 64.571H167.733V64.0417C167.733 62.8194 167.065 62.1639 165.78 62.1639C164.872 62.1639 164.053 62.5042 163.511 62.9958L163.196 62.5419C163.852 61.9624 164.809 61.6093 165.83 61.6093C167.456 61.6093 168.363 62.4411 168.363 64.0668" fill="#0F2A54"/>
<path fill-rule="evenodd" clip-rule="evenodd" d="M175.142 68.2383L172.887 65.3017L170.631 68.2383H169.912L172.521 64.8481L170.051 61.6598H170.769L172.887 64.3942L175.004 61.6598H175.71L173.24 64.8481L175.886 68.2383H175.142Z" fill="#0F2A54"/>
<path fill-rule="evenodd" clip-rule="evenodd" d="M183.423 64.949C183.423 63.2982 182.277 62.1766 180.764 62.1766C179.252 62.1766 178.118 63.2982 178.118 64.949C178.118 66.6002 179.252 67.7215 180.764 67.7215C182.277 67.7215 183.423 66.6002 183.423 64.949M184.053 64.949C184.053 66.915 182.655 68.2887 180.802 68.2887C179.617 68.2887 178.622 67.6967 178.105 66.6884V68.2385H177.5V58.8872H178.13V63.1598C178.66 62.1766 179.643 61.6094 180.802 61.6094C182.655 61.6094 184.053 62.9705 184.053 64.949" fill="#0F2A54"/>
<path fill-rule="evenodd" clip-rule="evenodd" d="M191.225 64.949C191.225 63.2982 190.091 62.1766 188.578 62.1766C187.066 62.1766 185.932 63.2982 185.932 64.949C185.932 66.6002 187.066 67.7214 188.578 67.7214C190.091 67.7214 191.225 66.6002 191.225 64.949M185.289 64.949C185.289 62.9956 186.688 61.6094 188.578 61.6094C190.469 61.6094 191.868 62.9956 191.868 64.949C191.868 66.9025 190.469 68.2887 188.578 68.2887C186.688 68.2887 185.289 66.9025 185.289 64.949" fill="#0F2A54"/>
<path fill-rule="evenodd" clip-rule="evenodd" d="M196.935 61.6093V62.2267C196.885 62.2267 196.835 62.2141 196.784 62.2141C195.322 62.2141 194.453 63.1848 194.453 64.8105V68.2383H193.822V61.6598H194.427V63.0966C194.831 62.1388 195.7 61.6093 196.935 61.6093" fill="#0F2A54"/>
<path fill-rule="evenodd" clip-rule="evenodd" d="M203.829 64.949C203.829 63.2982 202.694 62.1766 201.182 62.1766C199.67 62.1766 198.535 63.2982 198.535 64.949C198.535 66.6002 199.67 67.7214 201.182 67.7214C202.694 67.7214 203.829 66.6002 203.829 64.949M197.893 64.949C197.893 62.9956 199.291 61.6094 201.182 61.6094C203.072 61.6094 204.471 62.9956 204.471 64.949C204.471 66.9025 203.072 68.2887 201.182 68.2887C199.291 68.2887 197.893 66.9025 197.893 64.949" fill="#0F2A54"/>
<path fill-rule="evenodd" clip-rule="evenodd" d="M209.69 67.8224C209.362 68.1375 208.833 68.2889 208.341 68.2889C207.182 68.2889 206.552 67.6083 206.552 66.4993V62.2019H205.342V61.6598H206.552V60.223H207.182V61.6598H209.274V62.2019H207.182V66.4362C207.182 67.2806 207.598 67.7467 208.404 67.7467C208.795 67.7467 209.16 67.6205 209.425 67.3813L209.69 67.8224Z" fill="#0F2A54"/>
<path fill-rule="evenodd" clip-rule="evenodd" d="M132.634 78.1868V76.9519H130.39C129.029 76.9519 128.55 77.5191 128.55 78.2753C128.55 79.1323 129.218 79.6615 130.377 79.6615C131.487 79.6615 132.255 79.1323 132.634 78.1868M133.264 75.9565V80.1276H132.659V78.9555C132.243 79.7117 131.436 80.1782 130.289 80.1782C128.815 80.1782 127.92 79.422 127.92 78.3001C127.92 77.3047 128.55 76.4606 130.377 76.4606H132.634V75.931C132.634 74.7087 131.966 74.0532 130.68 74.0532C129.773 74.0532 128.954 74.3935 128.412 74.8851L128.097 74.4315C128.752 73.8514 129.71 73.4989 130.731 73.4989C132.356 73.4989 133.264 74.3304 133.264 75.9565" fill="#0F2A54"/>
<path fill-rule="evenodd" clip-rule="evenodd" d="M141.178 76.6871C141.178 75.1371 140.044 74.0657 138.481 74.0657C136.931 74.0657 135.797 75.1371 135.797 76.6871C135.797 78.2375 136.931 79.3211 138.481 79.3211C140.044 79.3211 141.178 78.2375 141.178 76.6871V76.6871ZM141.796 73.549V79.4222C141.796 81.6274 140.725 82.6231 138.607 82.6231C137.41 82.6231 136.263 82.2448 135.595 81.5772L135.935 81.0982C136.591 81.7031 137.536 82.0562 138.594 82.0562C140.347 82.0562 141.166 81.2495 141.166 79.4975V78.3885C140.624 79.3466 139.616 79.8884 138.431 79.8884C136.566 79.8884 135.154 78.5649 135.154 76.6871C135.154 74.8097 136.566 73.4991 138.431 73.4991C139.641 73.4991 140.662 74.0532 141.191 75.0363V73.549H141.796Z" fill="#0F2A54"/>
<path fill-rule="evenodd" clip-rule="evenodd" d="M144.38 76.4983H149.421C149.333 75.0741 148.299 74.0532 146.9 74.0532C145.502 74.0532 144.481 75.0615 144.38 76.4983M150.026 76.9895H144.367C144.43 78.5525 145.577 79.611 147.152 79.611C147.985 79.611 148.753 79.3087 149.257 78.6909L149.623 79.1068C149.043 79.8128 148.136 80.1782 147.14 80.1782C145.149 80.1782 143.75 78.7916 143.75 76.8382C143.75 74.8851 145.098 73.4989 146.9 73.4989C148.703 73.4989 150.038 74.8597 150.038 76.8134C150.038 76.8637 150.026 76.9268 150.026 76.9895" fill="#0F2A54"/>
<path fill-rule="evenodd" clip-rule="evenodd" d="M157.878 76.284V80.1278H157.248V76.3342C157.248 74.8476 156.454 74.0659 155.118 74.0659C153.568 74.0659 152.623 75.0613 152.623 76.6243V80.1278H151.992V73.5489H152.597V74.9734C153.038 74.0534 153.959 73.499 155.206 73.499C156.807 73.499 157.878 74.4442 157.878 76.284" fill="#0F2A54"/>
<path fill-rule="evenodd" clip-rule="evenodd" d="M163.737 79.7118C163.409 80.027 162.88 80.1783 162.388 80.1783C161.229 80.1783 160.598 79.4974 160.598 78.3883V74.0913H159.389V73.5488H160.598V72.1124H161.229V73.5488H163.321V74.0913H161.229V78.3256C161.229 79.17 161.644 79.6365 162.451 79.6365C162.842 79.6365 163.207 79.5103 163.472 79.2707L163.737 79.7118Z" fill="#0F2A54"/>
<path fill-rule="evenodd" clip-rule="evenodd" d="M165.49 80.1278H166.12V70.7769H165.49V80.1278Z" fill="#0F2A54"/>
<path fill-rule="evenodd" clip-rule="evenodd" d="M168.783 80.1278H169.423V73.549H168.783V80.1278ZM168.578 71.4445C168.578 71.1674 168.808 70.9279 169.103 70.9279C169.398 70.9279 169.628 71.1548 169.628 71.432C169.628 71.7221 169.398 71.9487 169.103 71.9487C168.808 71.9487 168.578 71.7221 168.578 71.4445V71.4445Z" fill="#0F2A54"/>
<path fill-rule="evenodd" clip-rule="evenodd" d="M177.373 76.6871C177.373 75.1371 176.239 74.0657 174.677 74.0657C173.126 74.0657 171.992 75.1371 171.992 76.6871C171.992 78.2375 173.126 79.3211 174.677 79.3211C176.239 79.3211 177.373 78.2375 177.373 76.6871V76.6871ZM177.991 73.549V79.4222C177.991 81.6274 176.92 82.6231 174.803 82.6231C173.605 82.6231 172.459 82.2448 171.791 81.5772L172.131 81.0982C172.786 81.7031 173.731 82.0562 174.79 82.0562C176.542 82.0562 177.361 81.2495 177.361 79.4975V78.3885C176.819 79.3466 175.811 79.8884 174.626 79.8884C172.761 79.8884 171.35 78.5649 171.35 76.6871C171.35 74.8097 172.761 73.4991 174.626 73.4991C175.836 73.4991 176.857 74.0532 177.386 75.0363V73.549H177.991Z" fill="#0F2A54"/>
<path fill-rule="evenodd" clip-rule="evenodd" d="M180.666 80.1278H181.306V73.549H180.666V80.1278ZM180.461 71.4445C180.461 71.1674 180.692 70.9279 180.986 70.9279C181.28 70.9279 181.511 71.1548 181.511 71.432C181.511 71.7221 181.28 71.9487 180.986 71.9487C180.692 71.9487 180.461 71.7221 180.461 71.4445V71.4445Z" fill="#0F2A54"/>
</svg>
